<?xml version="1.0" encoding="utf-8"?>
<!-- Generator: Adobe Illustrator 26.0.3, SVG Export Plug-In . SVG Version: 6.00 Build 0)  -->
<svg version="1.0" id="katman_1" xmlns="http://www.w3.org/2000/svg" xmlns:xlink="http://www.w3.org/1999/xlink" x="0px" y="0px"
	 viewBox="0 0 600 450" style="enable-background:new 0 0 600 450;" xml:space="preserve">
<style type="text/css">
	.st0{clip-path:url(#SVGID_00000115472479663502057290000017958373629709227160_);fill:#FCB400;}
	.st1{clip-path:url(#SVGID_00000115472479663502057290000017958373629709227160_);fill:#18BFFF;}
	.st2{fill:#F82B60;}
	.st3{clip-path:url(#SVGID_00000011013268147154044410000009661964845472027528_);}
</style>
<g>
	<g>
		<defs>
			<rect id="SVGID_1_" x="81" y="170" width="133" height="111"/>
		</defs>
		<clipPath id="SVGID_00000127757437549239007230000007543501758818353031_">
			<use xlink:href="#SVGID_1_"  style="overflow:visible;"/>
		</clipPath>
		<path style="clip-path:url(#SVGID_00000127757437549239007230000007543501758818353031_);fill:#FCB400;" d="M140.2,171.4
			l-49.5,20.5c-2.8,1.1-2.7,5,0,6.1l49.7,19.7c4.4,1.7,9.2,1.7,13.6,0l49.7-19.7c2.8-1.1,2.8-5,0-6.1l-49.5-20.5
			C149.8,169.5,144.8,169.5,140.2,171.4"/>
		<path style="clip-path:url(#SVGID_00000127757437549239007230000007543501758818353031_);fill:#18BFFF;" d="M151.7,228.5v49.2
			c0,2.3,2.4,3.9,4.5,3.1l55.4-21.5c1.3-0.5,2.1-1.7,2.1-3.1V207c0-2.3-2.4-3.9-4.5-3.1l-55.4,21.5
			C152.5,225.9,151.7,227.1,151.7,228.5"/>
	</g>
	<path class="st2" d="M138.8,231l-16.4,7.9l-1.7,0.8L86,256.4c-2.2,1.1-5-0.5-5-3v-46.2c0-0.9,0.5-1.6,1.1-2.2
		c0.2-0.2,0.5-0.5,0.8-0.6c0.8-0.5,2-0.6,3-0.2l52.6,20.8C141.2,226,141.4,229.8,138.8,231"/>
	<path d="M138.8,231l-16.4,7.9l-40.3-34c0.2-0.2,0.5-0.5,0.8-0.6c0.8-0.5,2-0.6,3-0.2l52.6,20.8C141.2,226,141.4,229.8,138.8,231"/>
</g>
<g>
	<g>
		<defs>
			<rect id="SVGID_00000109016168541712424000000007114608289798845862_" x="236" y="194.1" width="288" height="61.7"/>
		</defs>
		<clipPath id="SVGID_00000125594306909453458310000006802970317387191989_">
			<use xlink:href="#SVGID_00000109016168541712424000000007114608289798845862_"  style="overflow:visible;"/>
		</clipPath>
		<path style="clip-path:url(#SVGID_00000125594306909453458310000006802970317387191989_);" d="M272.8,228.2l-7.3-19.3
			c-0.3-0.8-1.4-0.8-1.7,0l-7.2,19.3c-0.2,0.6,0.2,1.2,0.9,1.2H272c0.5,0,0.8-0.3,0.9-0.8C272.9,228.5,272.8,228.3,272.8,228.2
			L272.8,228.2z M276.2,239h-23c-0.4,0-0.7,0.2-0.9,0.6l-4.6,12c-0.1,0.4-0.5,0.6-0.9,0.6h-10c-0.7,0-1.1-0.7-0.9-1.3l22.9-56.3
			c0.1-0.4,0.5-0.6,0.9-0.5h9.5c0.4,0,0.7,0.2,0.9,0.5l22.9,56.3c0.3,0.6-0.2,1.3-0.9,1.3h-9.9c-0.4,0-0.7-0.2-0.9-0.6l-4.6-12
			C276.9,239.3,276.5,239,276.2,239L276.2,239z M297.9,213.9h8.5c0.5,0,0.9,0.4,0.9,0.9v36.5c0,0.5-0.4,0.9-0.9,0.9h-8.5
			c-0.5,0-0.9-0.4-0.9-0.9v-36.5C297,214.3,297.4,213.9,297.9,213.9L297.9,213.9z M338.5,222.8c0,0.5-0.4,0.9-0.9,0.9h-0.2
			c-4.2,0-7.3,1-9.3,3c-2,2-2.9,5.3-2.9,9.9v14.8c0,0.5-0.4,0.9-0.9,0.9h-8.4c-0.5,0-0.9-0.4-0.9-0.9v-36.5c0-0.5,0.4-0.9,0.9-0.9
			h8.3c0.5,0,0.9,0.4,0.9,0.9v7.2h0.2c0.9-2.7,2.5-5.1,4.8-6.9c2.4-1.7,5.2-2.5,8.1-2.4h0.4L338.5,222.8L338.5,222.8L338.5,222.8z
			 M361.8,222.5c-0.5,0-0.9,0.4-0.9,0.9v15.2c-0.1,1.2,0.2,2.4,0.9,3.3c0.6,0.7,1.7,1,3.2,1h0.9c0.5,0,0.9,0.4,0.9,0.9v7.6
			c0,0.5-0.4,0.9-0.9,0.9h-3.6c-3.8,0-6.6-1-8.7-2.8c-2-1.9-3-4.7-3-8.5v-17.5c0-0.5-0.4-0.9-0.9-0.9h-5.3c-0.5,0-0.9-0.4-0.9-0.9
			v-6.7c0-0.5,0.4-0.9,0.9-0.9h5.3c0.5,0,0.9-0.4,0.9-0.9v-13.6c0-0.5,0.4-0.9,0.9-0.9h8.5c0.5,0,0.9,0.4,0.9,0.9V213
			c0,0.5,0.4,0.9,0.9,0.9h6.1c0.5,0,0.9,0.4,0.9,0.9v6.7c0,0.5-0.4,0.9-0.9,0.9H361.8z M400.8,240.8c2-2.1,3-4.9,2.9-7.8
			c0.1-2.9-0.9-5.7-2.9-7.8c-4.3-4-10.9-4-15.2,0c-2,2.1-3,4.9-2.9,7.8c-0.1,2.9,0.9,5.7,2.9,7.8c2,2,4.8,3.1,7.6,3
			C396,244,398.8,242.9,400.8,240.8L400.8,240.8z M381.1,251.1c-2.9-1.6-5.2-4.1-6.8-7c-3.3-7-3.3-15.1,0-22c1.5-2.9,3.9-5.3,6.8-7
			c2.9-1.6,6.2-2.5,9.5-2.4c2.7-0.1,5.4,0.5,7.8,1.8c2.1,1.1,3.9,2.8,5.2,4.9h0.2v-4.5c0-0.5,0.4-0.9,0.9-0.9h8.4
			c0.5,0,0.9,0.4,0.9,0.9v36.5c0,0.5-0.4,0.9-0.9,0.9h-8.4c-0.5,0-0.9-0.4-0.9-0.9v-4.5h-0.2c-1.2,2.1-3,3.8-5.2,4.9
			c-2.4,1.2-5.1,1.8-7.8,1.8C387.3,253.5,384,252.7,381.1,251.1L381.1,251.1z M449.1,240.8c2-2.1,3-4.9,2.9-7.8
			c0.1-2.9-0.9-5.7-2.9-7.8c-4.3-4-10.9-4-15.2,0c-2,2.1-3,4.9-2.9,7.8c-0.1,2.9,0.9,5.7,2.9,7.8c2,2,4.8,3.1,7.6,3
			C444.3,244,447.1,242.9,449.1,240.8L449.1,240.8z M436.3,251.7c-2.1-1.1-3.9-2.8-5.2-4.9H431v4.5c0,0.5-0.4,0.9-0.9,0.9h-8.5
			c-0.5,0-0.9-0.4-0.9-0.9V195c0-0.5,0.4-0.9,0.9-0.9h8.5c0.5,0,0.9,0.4,0.9,0.9v24.3h0.2c1.2-2.1,3-3.8,5.2-4.9
			c2.4-1.2,5.1-1.8,7.8-1.8c3.3,0,6.6,0.8,9.4,2.4c2.9,1.6,5.2,4.1,6.8,7c1.7,3.4,2.6,7.2,2.5,11c0.1,3.8-0.8,7.6-2.5,11
			c-1.5,2.9-3.9,5.4-6.7,7c-2.9,1.6-6.2,2.5-9.5,2.4C441.4,253.6,438.7,252.9,436.3,251.7L436.3,251.7z M477.2,252.2h-8.5
			c-0.5,0-0.9-0.4-0.9-0.9v-56.3c0-0.5,0.4-0.9,0.9-0.9h8.5c0.5,0,0.9,0.4,0.9,0.9v56.3c0,0.4-0.2,0.7-0.5,0.8
			C477.4,252.2,477.3,252.2,477.2,252.2L477.2,252.2z M497.3,222.8c-1.5,1.2-2.5,2.9-2.9,4.7c-0.1,0.6,0.3,1.1,0.9,1.1h16.2
			c0.5,0,1-0.5,0.9-1c-0.2-1.8-1.1-3.5-2.5-4.7c-1.8-1.4-4-2.1-6.3-2.1C501.4,220.8,499.1,221.4,497.3,222.8L497.3,222.8z M518,218
			c3.3,3.6,5,8.6,5,15.1v1.1c0,0.5-0.4,0.9-0.9,0.9H495c-0.6,0-1,0.5-0.9,1.1c0.3,2.3,1.5,4.3,3.3,5.8c2.1,1.7,4.8,2.5,7.5,2.4
			c4.1,0,8-1.7,10.9-4.5c0.4-0.4,1.1-0.3,1.3,0.2l4.1,5.9c0.2,0.4,0.2,0.9-0.1,1.2c-2,1.7-4.3,3.2-6.7,4.4c-3,1.3-6.3,2-9.5,1.9
			c-3.8,0.1-7.6-0.8-11.1-2.5c-3.1-1.6-5.6-4.1-7.3-7.1c-1.8-3.3-2.7-6.9-2.6-10.7c-0.1-3.7,0.8-7.4,2.5-10.7c1.6-3,4.1-5.5,7.1-7.2
			c3.2-1.8,6.9-2.7,10.6-2.6C510.1,212.7,514.7,214.5,518,218L518,218z M308.5,200.4c0.1,5.6-6.6,8.5-10.6,4.6
			c-4-3.9-1.3-10.7,4.3-10.8h0C305.6,194.2,308.4,196.9,308.5,200.4L308.5,200.4z M308.5,200.4"/>
	</g>
</g>
</svg>
