<svg width="143" height="32" viewBox="0 0 143 32" fill="none" xmlns="http://www.w3.org/2000/svg">
<g clip-path="url(#clip0_2575_819)">
<path d="M16.0039 32C24.8405 32 32.0039 24.8366 32.0039 16C32.0039 7.16344 24.8405 0 16.0039 0C7.16735 0 0.00390625 7.16344 0.00390625 16C0.00390625 24.8366 7.16735 32 16.0039 32Z" fill="#0081FF"/>
<path d="M11.5253 18.3125H7.27703C7.12763 18.3125 7.03373 18.151 7.10801 18.0212L13.9132 6.12891H23.8717C24.0332 6.12891 24.1246 6.3142 24.0257 6.44231L19.1602 12.753C19.0617 12.8811 19.1527 13.0664 19.3142 13.0664H24.5102C24.6855 13.0664 24.7714 13.2797 24.645 13.4011L9.8427 27.6479C9.70206 27.7832 9.47212 27.6505 9.51886 27.461L11.7144 18.5533C11.7444 18.431 11.6518 18.3125 11.5253 18.3125Z" fill="white"/>
</g>
<path d="M43.2857 5V23.7317H40V5H43.2857Z" fill="#1179FC"/>
<path d="M49.9081 15.5V23.7317H46.7021V9.68293H49.7664V12.0701H49.9258C50.2387 11.2835 50.7377 10.6585 51.4226 10.1951C52.1133 9.73171 52.9665 9.5 53.9821 9.5C54.9208 9.5 55.7386 9.70732 56.4353 10.122C57.1379 10.5366 57.6811 11.1372 58.0649 11.9238C58.4545 12.7104 58.6464 13.6646 58.6405 14.7866V23.7317H55.4345V15.2988C55.4345 14.3598 55.1983 13.625 54.726 13.0945C54.2596 12.564 53.613 12.2988 52.7864 12.2988C52.2255 12.2988 51.7266 12.4268 51.2897 12.6829C50.8587 12.9329 50.5192 13.2957 50.2712 13.7713C50.0291 14.247 49.9081 14.8232 49.9081 15.5Z" fill="#1179FC"/>
<path d="M72.6514 13.3963L69.7287 13.7256C69.6461 13.4207 69.5014 13.1341 69.2948 12.8659C69.094 12.5976 68.8224 12.3811 68.48 12.2165C68.1375 12.0518 67.7183 11.9695 67.2224 11.9695C66.5552 11.9695 65.9943 12.1189 65.5397 12.4177C65.0909 12.7165 64.8695 13.1037 64.8754 13.5793C64.8695 13.9878 65.0142 14.3201 65.3094 14.5762C65.6105 14.8323 66.1065 15.0427 66.7973 15.2073L69.1177 15.7195C70.4048 16.0061 71.3613 16.4604 71.9871 17.0823C72.6189 17.7043 72.9377 18.5183 72.9436 19.5244C72.9377 20.4085 72.6868 21.189 72.1908 21.8659C71.7008 22.5366 71.0188 23.061 70.145 23.439C69.2712 23.8171 68.2674 24.0061 67.1338 24.0061C65.4688 24.0061 64.1285 23.6463 63.113 22.9268C62.0975 22.2012 61.4923 21.1921 61.2974 19.8994L64.4238 19.5884C64.5655 20.2226 64.8666 20.7012 65.3271 21.0244C65.7876 21.3476 66.3869 21.5091 67.125 21.5091C67.8866 21.5091 68.4977 21.3476 68.9582 21.0244C69.4247 20.7012 69.6579 20.3018 69.6579 19.8262C69.6579 19.4238 69.5073 19.0915 69.2062 18.8293C68.911 18.5671 68.4505 18.3659 67.8246 18.2256L65.5042 17.7226C64.1994 17.4421 63.234 16.9695 62.6082 16.3049C61.9823 15.6341 61.6724 14.7866 61.6783 13.7622C61.6724 12.8963 61.8997 12.1463 62.3602 11.5122C62.8266 10.872 63.4732 10.378 64.2998 10.0305C65.1323 9.67683 66.0917 9.5 67.1781 9.5C68.7723 9.5 70.0269 9.85061 70.9421 10.5518C71.8631 11.253 72.4329 12.2012 72.6514 13.3963Z" fill="#1179FC"/>
<path d="M82.3801 9.68293V12.2439H74.5599V9.68293H82.3801ZM76.4906 6.31707H79.6966V19.5061C79.6966 19.9512 79.7616 20.2927 79.8915 20.5305C80.0273 20.7622 80.2044 20.9207 80.4229 21.0061C80.6413 21.0915 80.8834 21.1341 81.1491 21.1341C81.3498 21.1341 81.5329 21.1189 81.6982 21.0884C81.8694 21.0579 81.9993 21.0305 82.0879 21.0061L82.6281 23.5945C82.4569 23.6555 82.2118 23.7226 81.893 23.7957C81.5801 23.8689 81.1963 23.9116 80.7417 23.9238C79.9387 23.9482 79.2154 23.8232 78.5719 23.5488C77.9283 23.2683 77.4176 22.8354 77.0397 22.25C76.6677 21.6646 76.4847 20.9329 76.4906 20.0549V6.31707Z" fill="#1179FC"/>
<path d="M88.9759 24.0152C88.1139 24.0152 87.3375 23.8567 86.6467 23.5396C85.9618 23.2165 85.4186 22.7409 85.0171 22.1128C84.6215 21.4848 84.4237 20.7104 84.4237 19.7896C84.4237 18.997 84.5654 18.3415 84.8488 17.8232C85.1322 17.3049 85.519 16.8902 86.009 16.5793C86.4991 16.2683 87.0511 16.0335 87.6652 15.875C88.2851 15.7104 88.9257 15.5915 89.587 15.5183C90.3841 15.4329 91.0306 15.3567 91.5266 15.2896C92.0225 15.2165 92.3827 15.1067 92.6071 14.9604C92.8373 14.8079 92.9525 14.5732 92.9525 14.2561V14.2012C92.9525 13.5122 92.7547 12.9787 92.3591 12.6006C91.9635 12.2226 91.3937 12.0335 90.6498 12.0335C89.8645 12.0335 89.2416 12.2104 88.7811 12.564C88.3265 12.9177 88.0194 13.3354 87.86 13.8171L84.8666 13.378C85.1027 12.5244 85.4924 11.811 86.0356 11.2378C86.5788 10.6585 87.243 10.2256 88.0283 9.93902C88.8136 9.64634 89.6815 9.5 90.6321 9.5C91.2874 9.5 91.9399 9.57927 92.5893 9.7378C93.2388 9.89634 93.8322 10.1585 94.3695 10.5244C94.9068 10.8841 95.3378 11.375 95.6625 11.997C95.9932 12.6189 96.1585 13.3963 96.1585 14.3293V23.7317H93.0764V21.8018H92.9702C92.7753 22.1921 92.5008 22.5579 92.1465 22.8994C91.7982 23.2348 91.3583 23.5061 90.8269 23.7134C90.3014 23.9146 89.6844 24.0152 88.9759 24.0152ZM89.8084 21.5823C90.452 21.5823 91.0099 21.4512 91.4823 21.189C91.9546 20.9207 92.3177 20.5671 92.5716 20.128C92.8314 19.689 92.9613 19.2104 92.9613 18.6921V17.0366C92.8609 17.122 92.6897 17.2012 92.4476 17.2744C92.2115 17.3476 91.9458 17.4116 91.6506 17.4665C91.3553 17.5213 91.0631 17.5701 90.7738 17.6128C90.4845 17.6555 90.2335 17.6921 90.021 17.7226C89.5427 17.7896 89.1147 17.8994 88.7368 18.0518C88.3589 18.2043 88.0608 18.4177 87.8423 18.6921C87.6238 18.9604 87.5146 19.3079 87.5146 19.7348C87.5146 20.3445 87.7301 20.8049 88.1611 21.1159C88.5922 21.4268 89.1412 21.5823 89.8084 21.5823Z" fill="#1179FC"/>
<path d="M102.588 15.5V23.7317H99.3822V9.68293H102.447V12.0701H102.606C102.919 11.2835 103.418 10.6585 104.103 10.1951C104.793 9.73171 105.647 9.5 106.662 9.5C107.601 9.5 108.419 9.70732 109.115 10.122C109.818 10.5366 110.361 11.1372 110.745 11.9238C111.135 12.7104 111.327 13.6646 111.321 14.7866V23.7317H108.115V15.2988C108.115 14.3598 107.878 13.625 107.406 13.0945C106.94 12.564 106.293 12.2988 105.467 12.2988C104.906 12.2988 104.407 12.4268 103.97 12.6829C103.539 12.9329 103.199 13.2957 102.951 13.7713C102.709 14.247 102.588 14.8232 102.588 15.5Z" fill="#1179FC"/>
<path d="M121.373 9.68293V12.2439H113.552V9.68293H121.373ZM115.483 6.31707H118.689V19.5061C118.689 19.9512 118.754 20.2927 118.884 20.5305C119.02 20.7622 119.197 20.9207 119.415 21.0061C119.634 21.0915 119.876 21.1341 120.142 21.1341C120.342 21.1341 120.525 21.1189 120.691 21.0884C120.862 21.0579 120.992 21.0305 121.08 21.0061L121.621 23.5945C121.449 23.6555 121.204 23.7226 120.886 23.7957C120.573 23.8689 120.189 23.9116 119.734 23.9238C118.931 23.9482 118.208 23.8232 117.564 23.5488C116.921 23.2683 116.41 22.8354 116.032 22.25C115.66 21.6646 115.477 20.9329 115.483 20.0549V6.31707Z" fill="#1179FC"/>
<path d="M127.552 5V23.7317H124.346V5H127.552Z" fill="#1179FC"/>
<path d="M132.842 29C132.405 29 132 28.9634 131.628 28.8902C131.262 28.8232 130.97 28.7439 130.752 28.6524L131.496 26.0732C131.962 26.2134 132.378 26.2805 132.744 26.2744C133.11 26.2683 133.432 26.1494 133.71 25.9177C133.993 25.6921 134.232 25.314 134.427 24.7835L134.702 24.0244L129.769 9.68293H133.169L136.305 20.2927H136.446L139.59 9.68293H143L137.553 25.4329C137.299 26.1768 136.963 26.814 136.544 27.3445C136.124 27.8811 135.611 28.2896 135.003 28.5701C134.4 28.8567 133.68 29 132.842 29Z" fill="#1179FC"/>
<defs>
<clipPath id="clip0_2575_819">
<rect width="32" height="32" fill="white"/>
</clipPath>
</defs>
</svg>
