<svg width="116" height="32" viewBox="0 0 116 32" fill="none" xmlns="http://www.w3.org/2000/svg">
<g id="Logo" filter="url(#filter0_d_733_166437)">
<path id="Vector" d="M23.4873 8.71425C22.9526 6.8764 22.0535 5.56473 20.8008 5.56473C19.1298 5.56473 16.8401 10.2476 16.8401 10.2476L16.6913 10.2153L16.7312 9.68805C16.7376 9.5869 16.7441 9.38031 16.7517 9.11991C16.784 7.85881 16.77 6.59771 16.7139 5.33876L16.6643 4.24122C16.6643 4.22185 16.6471 4.20679 16.6277 4.20679H15.4957C15.4763 4.20679 15.4601 4.22185 15.4591 4.24122L15.4095 5.33876C15.3523 6.59879 15.3383 7.85989 15.3717 9.11991C15.3782 9.38031 15.3858 9.58798 15.3922 9.68805L15.4321 10.2153L15.2833 10.2476C15.2833 10.2476 12.9936 5.56473 11.3226 5.56473C10.071 5.56473 9.17187 6.8764 8.63608 8.71425C6.17919 8.79388 4.20312 10.7275 4.20312 13.099C4.20312 15.4706 6.17919 17.4042 8.63608 17.4838C9.17079 19.3217 10.0699 20.6334 11.3226 20.6334C12.9936 20.6334 15.2833 15.9505 15.2833 15.9505L15.4321 15.9828L15.3922 16.51C15.3858 16.6112 15.3793 16.8178 15.3717 17.0782C15.3394 18.3393 15.3534 19.6004 15.4095 20.8604L15.4591 21.9579C15.4591 21.9773 15.4763 21.9924 15.4957 21.9924H16.6277C16.6471 21.9924 16.6633 21.9773 16.6643 21.9579L16.7139 20.8604C16.7711 19.6004 16.7851 18.3393 16.7517 17.0782C16.7452 16.8178 16.7376 16.6101 16.7312 16.51L16.6913 15.9828L16.8401 15.9505C16.8401 15.9505 19.1298 20.6334 20.8008 20.6334C22.0524 20.6334 22.9515 19.3217 23.4873 17.4838C25.9442 17.4042 27.9203 15.4706 27.9203 13.099C27.9203 10.7275 25.9442 8.79388 23.4873 8.71425ZM8.30943 16.0129C6.80662 15.7913 5.64879 14.571 5.64879 13.099C5.64879 11.627 6.80662 10.4068 8.30943 10.1852C8.15311 11.1116 8.07657 12.107 8.07657 13.099C8.07657 14.0911 8.15311 15.0865 8.30943 16.0129ZM11.0973 7.09053C11.1997 7.02166 11.3226 7.03565 11.4358 7.09376C12.0363 7.41656 14.2236 10.8286 14.2236 10.9448L14.118 11.0578C13.4625 10.6037 11.7991 9.47392 10.0699 8.94344C10.3868 7.93736 10.776 7.30466 11.0962 7.09053H11.0973ZM11.4358 19.1054C11.3226 19.1635 11.1997 19.1786 11.0973 19.1086C10.7771 18.8945 10.3879 18.2618 10.071 17.2557C11.8002 16.7252 13.4636 15.5954 14.1191 15.1413L14.2247 15.2543C14.2247 15.3705 12.0373 18.7826 11.4369 19.1054H11.4358ZM14.8715 13.1797C14.6893 13.282 10.7113 15.618 9.73892 15.8569C9.60417 15.0649 9.51684 14.146 9.51684 13.099C9.51684 12.0521 9.60417 11.1332 9.73892 10.3412C10.7102 10.5812 14.6893 12.9172 14.8715 13.0183V13.1787V13.1797ZM20.6887 7.09483C20.8019 7.03673 20.9248 7.02166 21.0272 7.09161C21.3474 7.30573 21.7366 7.93844 22.0535 8.94452C20.3243 9.475 18.6609 10.6048 18.0054 11.0589L17.8998 10.9459C17.8998 10.8297 20.0871 7.41764 20.6876 7.09483H20.6887ZM21.0272 19.1097C20.9248 19.1786 20.8019 19.1646 20.6887 19.1065C20.0882 18.7826 17.9009 15.3716 17.9009 15.2554L18.0065 15.1424C18.662 15.5965 20.3254 16.7263 22.0546 17.2568C21.7376 18.2629 21.3485 18.8956 21.0283 19.1097H21.0272ZM22.3845 15.858C21.4132 15.618 17.4341 13.282 17.2519 13.1808V13.0205C17.4341 12.9183 21.4121 10.5822 22.3845 10.3433C22.5192 11.1353 22.6066 12.0542 22.6066 13.1012C22.6066 14.1482 22.5192 15.0671 22.3845 15.859V15.858ZM23.8151 16.014C23.9714 15.0875 24.0479 14.0922 24.0479 13.1001C24.0479 12.108 23.9714 11.1127 23.8151 10.1862C25.3179 10.4079 26.4757 11.6281 26.4757 13.1001C26.4757 14.5721 25.3179 15.7923 23.8151 16.014ZM52.7618 6.25876H54.8489V8.34195H52.7618V6.25876ZM94.1375 10.9545C93.371 10.5144 92.5204 10.2928 91.5825 10.2928C90.6446 10.2928 89.794 10.5144 89.0275 10.9545C88.2632 11.4011 87.6627 11.9983 87.2239 12.7483C86.7884 13.5015 86.5695 14.3117 86.5695 15.1865C86.5695 16.0613 86.783 16.8737 87.2056 17.6248C87.6293 18.378 88.2244 18.9784 88.9909 19.4185H88.9876C89.7541 19.8586 90.6187 20.0803 91.5814 20.0803C92.5441 20.0803 93.4087 19.8554 94.1752 19.4067C94.9417 18.958 95.5368 18.3608 95.9605 17.613C96.3841 16.8684 96.5965 16.0613 96.5965 15.1865C96.5965 14.3117 96.3777 13.4993 95.9389 12.7483C95.5034 11.995 94.9029 11.3946 94.1353 10.9545H94.1375ZM94.0814 16.6499C93.8205 17.1051 93.4745 17.4655 93.0357 17.7313H93.0422C92.6034 17.9971 92.1215 18.1273 91.5879 18.1273C91.0542 18.1273 90.5724 17.9971 90.1336 17.7313C89.6959 17.4655 89.3488 17.1051 89.0879 16.6499C88.827 16.1948 88.6965 15.7342 88.6965 15.1898C88.6965 14.6453 88.8238 14.1525 89.076 13.7038C89.3272 13.2551 89.6797 12.9032 90.1207 12.6428C90.5648 12.3824 91.0499 12.2522 91.5836 12.2522C92.1172 12.2522 92.6056 12.3856 93.0465 12.6428C93.4906 12.9032 93.8399 13.2551 94.0911 13.7038C94.3434 14.1525 94.4706 14.67 94.4706 15.1898C94.4706 15.7095 94.3401 16.1948 94.0793 16.6499H94.0814ZM83.3742 6.25876H85.4613V19.9092H83.3742V6.25876ZM112.008 10.4671L108.514 19.9092H106.427L104.139 13.2282L101.85 19.9092H99.7627L96.2688 10.4671H98.4421L100.855 17.3321L103.174 10.4671H105.208L107.509 17.3321L109.94 10.4671H112.009H112.008ZM43.6038 6.25876L37.9429 19.9092H35.6628L30.002 6.25876H32.3769L36.8509 17.3203L41.3248 6.25876H43.6049H43.6038ZM81.355 6.25876H81.9857V8.04066H81.4973C81.0294 8.04066 80.6564 8.17086 80.3815 8.43126C80.1066 8.69165 79.919 9.08978 79.8274 9.63425L79.6808 10.4682H81.9857V12.2684H79.3649L78.0238 19.9103H78.0195L77.8697 20.7614C77.6886 21.7718 77.2832 22.5315 76.6525 23.034H76.6558C76.0219 23.5397 75.2489 23.7936 74.3369 23.7936C73.6534 23.7936 73.1791 23.7872 72.9128 23.7764L73.2265 21.9945H74.1946C74.6625 21.9945 75.0355 21.8643 75.3104 21.6039C75.5853 21.3435 75.7718 20.9443 75.8645 20.4009L77.2918 12.2684H75.7459V10.4682H77.6077L77.8212 9.27378C77.999 8.2634 78.4044 7.50372 79.0383 7.00122L79.035 6.99799C79.6657 6.49226 80.4419 6.25876 81.3539 6.25876H81.355ZM52.7618 10.4671H54.8489V19.9092H52.7618V10.4671ZM49.27 10.9545C48.5035 10.5144 47.6529 10.2928 46.715 10.2928C45.7771 10.2928 44.9265 10.5144 44.1601 10.9545C43.3936 11.4011 42.7952 11.9983 42.3565 12.7483C41.9209 13.5015 41.7021 14.3117 41.7021 15.1865C41.7021 16.0613 41.9155 16.8737 42.3381 17.6248C42.7618 18.378 43.3569 18.9784 44.1234 19.4185H44.1202C44.8867 19.8586 45.7545 20.0803 46.714 20.0803C47.6734 20.0803 48.538 19.8554 49.3045 19.4067C50.071 18.958 50.6661 18.3608 51.0898 17.613C51.5135 16.8684 51.7258 16.0613 51.7258 15.1865C51.7258 14.3117 51.5102 13.4993 51.0714 12.7483C50.6359 11.995 50.0354 11.3946 49.2679 10.9545H49.27ZM49.214 16.6499C48.9531 17.1051 48.607 17.4655 48.1693 17.7313H48.1747C47.737 17.9971 47.2541 18.1273 46.7204 18.1273C46.1868 18.1273 45.7049 17.9971 45.2661 17.7313C44.8284 17.4655 44.4813 17.1051 44.2215 16.6499C43.9606 16.1948 43.8302 15.7342 43.8302 15.1898C43.8302 14.6453 43.9574 14.1525 44.2086 13.7038C44.4608 13.2551 44.8101 12.9032 45.2543 12.6428C45.6984 12.3824 46.1836 12.2522 46.7172 12.2522C47.2508 12.2522 47.7392 12.3856 48.1801 12.6428C48.6243 12.9032 48.9736 13.2551 49.2258 13.7038C49.477 14.1525 49.6042 14.67 49.6042 15.1898C49.6042 15.7095 49.4738 16.1948 49.2129 16.6499H49.214ZM74.7282 17.4031C74.7908 17.2493 74.85 17.0954 74.8996 16.9394H72.8125C72.7478 17.0631 72.6702 17.1782 72.584 17.2912C72.3414 17.6011 72.0363 17.8443 71.6633 18.0208C71.2903 18.1983 70.9141 18.2457 70.4581 18.2457C69.9395 18.2457 69.4512 18.1241 68.9951 17.8852C68.5359 17.6431 68.1715 17.3203 67.8912 16.9071C67.6519 16.5552 67.5096 16.1657 67.4675 15.7428H75.0915C75.1422 14.7324 74.988 13.8103 74.6355 12.9828H74.6323C74.2765 12.1554 73.7321 11.5022 72.9979 11.0202C72.2638 10.5381 71.3841 10.2992 70.36 10.2992C69.4361 10.2992 68.5952 10.5177 67.8427 10.9524C67.0902 11.3892 66.4984 11.9778 66.0661 12.7171C65.6338 13.4584 65.4203 14.2719 65.4203 15.1553C65.4203 15.3565 65.4322 15.5513 65.4559 15.7439C65.527 16.4175 65.7286 17.0437 66.0574 17.6291C66.4811 18.3823 67.0762 18.9795 67.8427 19.4228C68.6092 19.8629 69.4803 20.0878 70.4537 20.0878C71.4779 20.0878 72.3576 19.8489 73.0917 19.3669C73.8259 18.8848 74.3714 18.2317 74.7261 17.4042L74.7282 17.4031ZM67.681 13.8749C67.8438 13.3637 68.1435 12.9376 68.5747 12.6041C69.0038 12.2705 69.587 12.1016 70.3211 12.1016C70.7804 12.1016 71.1911 12.1898 71.5674 12.3673C71.9404 12.5449 72.2455 12.787 72.488 13.0969C72.7274 13.4046 72.8934 13.7554 72.9796 14.1492H67.6001C67.6239 14.0578 67.6508 13.9663 67.6799 13.8749H67.681ZM58.4011 13.7005C58.1704 14.1492 58.0572 14.6399 58.0572 15.1693C58.0572 15.6987 58.1726 16.1894 58.4011 16.6381C58.6286 17.0868 58.9488 17.4386 59.3606 17.699C59.7692 17.9594 60.237 18.0896 60.7556 18.0896C61.2741 18.0896 61.7151 17.9831 62.0848 17.7679C62.4524 17.5516 62.7241 17.2622 62.902 16.8963H65.1821C64.9805 17.4634 64.6872 17.9874 64.3088 18.4598C63.9272 18.9322 63.4324 19.3142 62.8255 19.6068C62.2153 19.8995 61.5081 20.0448 60.6963 20.0448C59.8112 20.0448 58.9994 19.8285 58.2653 19.3916C57.5279 18.9537 56.9533 18.3662 56.5361 17.6183C56.1157 16.8737 55.9087 16.0581 55.9087 15.1715C55.9087 14.2848 56.1189 13.4724 56.5361 12.7246C56.9533 11.98 57.5311 11.3892 58.2653 10.9513C58.9994 10.5166 59.808 10.2982 60.6963 10.2982C61.507 10.2982 62.2153 10.4434 62.8255 10.735C63.4356 11.0245 63.9294 11.4086 64.3088 11.8821C64.6872 12.3544 64.9783 12.8785 65.1821 13.4455H62.902C62.7241 13.0786 62.4514 12.7891 62.0848 12.5739C61.7172 12.3587 61.2741 12.2522 60.7556 12.2522C60.237 12.2522 59.7724 12.3856 59.3606 12.6428C58.9488 12.9032 58.6297 13.2551 58.4011 13.7038V13.7005Z" fill="white"/>
</g>
<defs>
<filter id="filter0_d_733_166437" x="-4" y="0" width="123.5" height="36" filterUnits="userSpaceOnUse" color-interpolation-filters="sRGB">
<feFlood flood-opacity="0" result="BackgroundImageFix"/>
<feColorMatrix in="SourceAlpha" type="matrix" values="0 0 0 0 0 0 0 0 0 0 0 0 0 0 0 0 0 0 127 0" result="hardAlpha"/>
<feOffset dy="4"/>
<feGaussianBlur stdDeviation="2"/>
<feComposite in2="hardAlpha" operator="out"/>
<feColorMatrix type="matrix" values="0 0 0 0 0 0 0 0 0 0 0 0 0 0 0 0 0 0 0.25 0"/>
<feBlend mode="normal" in2="BackgroundImageFix" result="effect1_dropShadow_733_166437"/>
<feBlend mode="normal" in="SourceGraphic" in2="effect1_dropShadow_733_166437" result="shape"/>
</filter>
</defs>
</svg>
