<?xml version="1.0" standalone="no"?>
<!DOCTYPE svg PUBLIC "-//W3C//DTD SVG 20010904//EN"
 "http://www.w3.org/TR/2001/REC-SVG-20010904/DTD/svg10.dtd">
<svg version="1.0" xmlns="http://www.w3.org/2000/svg"
 width="118.000000pt" height="111.000000pt" viewBox="0 0 118.000000 111.000000"
 preserveAspectRatio="xMidYMid meet">

<g transform="translate(0.000000,111.000000) scale(0.100000,-0.100000)"
fill="#000000" stroke="none">
<path d="M534 940 c-36 -24 -137 -169 -193 -279 -37 -71 -146 -156 -193 -149
-20 3 -23 9 -22 49 0 76 63 240 121 316 13 17 38 36 55 42 22 8 28 15 21 22
-15 15 -55 -4 -88 -43 -53 -62 -145 -294 -145 -365 0 -35 29 -56 67 -50 18 3
33 3 33 0 0 -3 -16 -27 -36 -54 -39 -53 -57 -119 -32 -119 21 0 56 42 133 160
74 114 109 160 132 173 9 6 5 -9 -11 -40 -33 -61 -33 -90 -1 -105 33 -15 64 1
133 69 l53 53 31 -16 31 -16 -31 -30 c-18 -16 -32 -33 -32 -39 0 -25 75 5 122
49 27 25 28 25 47 8 17 -16 30 -17 86 -11 l65 7 -31 -73 c-17 -39 -46 -117
-66 -173 -19 -55 -46 -127 -60 -159 -14 -31 -23 -60 -20 -63 12 -13 37 6 43
33 9 39 127 274 166 331 18 26 65 84 106 130 40 45 68 82 62 82 -19 0 -138
-120 -176 -177 -20 -30 -38 -52 -40 -50 -2 2 10 37 27 78 22 51 50 94 93 140
95 104 163 226 138 251 -32 32 -101 -47 -179 -204 -52 -105 -79 -128 -148
-128 -45 0 -53 16 -17 34 41 21 84 75 80 100 -2 16 -11 22 -39 24 -31 3 -41
-3 -77 -42 -23 -25 -42 -54 -42 -65 0 -10 -7 -21 -15 -25 -22 -8 -76 5 -82 20
-8 20 38 74 71 82 34 9 44 27 21 36 -18 7 -65 -14 -84 -38 -17 -20 -31 -20
-31 -1 0 21 -48 30 -87 16 -19 -7 -36 -11 -38 -9 -2 2 27 48 66 103 65 92 78
124 54 131 -5 2 -24 -5 -41 -16z m10 -42 c-19 -33 -70 -103 -76 -106 -5 -2 -8
-8 -8 -14 0 -14 -52 -80 -58 -73 -6 6 59 114 101 168 27 34 57 53 41 25z m556
-13 c0 -16 -120 -195 -130 -195 -14 0 34 93 77 153 30 41 53 59 53 42z m-270
-169 c0 -17 -59 -76 -77 -76 -20 0 -15 19 15 55 28 34 62 46 62 21z m-280 -38
c0 -26 -11 -43 -58 -88 -62 -60 -99 -79 -109 -54 -9 23 15 67 32 60 10 -4 15
1 15 15 0 49 48 97 98 98 18 1 22 -4 22 -31z m-320 -196 c0 -12 -62 -94 -67
-88 -5 5 54 96 62 96 3 0 5 -4 5 -8z"/>
</g>
</svg>
